<?xml version="1.0" encoding="utf-8"?>
<!-- Generator: Adobe Illustrator 17.1.0, SVG Export Plug-In . SVG Version: 6.00 Build 0)  -->
<!DOCTYPE svg PUBLIC "-//W3C//DTD SVG 1.1//EN" "http://www.w3.org/Graphics/SVG/1.1/DTD/svg11.dtd">
<svg version="1.1" id="Capa_1" xmlns="http://www.w3.org/2000/svg" xmlns:xlink="http://www.w3.org/1999/xlink" x="0px" y="0px"
	 viewBox="0 0 30 30" enable-background="new 0 0 30 30" xml:space="preserve">
<g>
	<path fill="#29499D" d="M20.2,22.5v-3.4c-0.2,1-0.6,1.9-1.3,2.6c-0.4,0.5-0.9,0.8-1.5,1.2V25h11.3v-2.6H20.2z"/>
	<g>
		<path fill="none" d="M16.9,9c-0.4-0.2-0.8-0.4-1.3-0.6c-0.5-0.2-0.9-0.2-1.4-0.2c-0.3,0-0.6,0-0.9,0.1c-0.3,0.1-0.6,0.2-0.9,0.4
			c-0.3,0.2-0.5,0.4-0.7,0.6c-0.2,0.2-0.3,0.4-0.3,0.6c0,0.6,0.2,1.1,0.6,1.5c0.4,0.4,1,0.7,1.6,1c0.6,0.3,1.4,0.6,2.1,0.8
			c0.6,0.2,1.2,0.4,1.8,0.7V9.4L16.9,9z"/>
		<path fill="#29499D" d="M17.4,9.4V14c0.1,0.1,0.3,0.1,0.4,0.2c0.7,0.4,1.3,0.8,1.7,1.4c0.3,0.4,0.5,0.9,0.6,1.4V4.3l-2.8,0v2.1
			V9.4z"/>
		<path fill="#52C2C3" d="M20.3,17.9c0-0.3,0-0.6-0.1-0.9v2C20.3,18.7,20.3,18.3,20.3,17.9z"/>
		<path fill="#52C2C3" d="M19.6,15.7c-0.5-0.6-1-1-1.7-1.4c-0.1-0.1-0.3-0.1-0.4-0.2c-0.6-0.3-1.2-0.5-1.8-0.7
			c-0.8-0.2-1.5-0.5-2.2-0.8c-0.6-0.3-1.2-0.6-1.6-1c-0.4-0.4-0.6-0.9-0.6-1.5c0-0.2,0.1-0.4,0.3-0.6c0.2-0.2,0.4-0.4,0.7-0.6
			c0.3-0.2,0.6-0.3,0.9-0.4c0.3-0.1,0.6-0.1,0.9-0.1c0.5,0,1,0.1,1.4,0.2C16,8.6,16.5,8.8,16.9,9l0.6,0.4V6.3
			C17.2,6.2,17,6.1,16.7,6c-0.5-0.2-1.1-0.3-1.7-0.3l0.4-1.8h-2.9l0.4,1.9c-0.5,0.1-1,0.2-1.5,0.4C10.8,6.4,10.2,6.6,9.7,7
			C9.3,7.3,8.9,7.7,8.6,8.2C8.3,8.7,8.1,9.3,8.1,9.9c0,0.8,0.1,1.6,0.4,2.1c0.3,0.6,0.6,1.1,1.1,1.5c0.4,0.4,1,0.7,1.5,1
			c0.5,0.3,1.1,0.5,1.7,0.7c0.6,0.2,1.1,0.4,1.7,0.6c0.5,0.2,1,0.4,1.4,0.6c0.4,0.2,0.7,0.5,1,0.8c0.2,0.3,0.3,0.6,0.3,1.1
			c0,0.4-0.1,0.8-0.3,1.2c-0.2,0.4-0.5,0.7-0.8,0.9c-0.3,0.3-0.7,0.5-1.2,0.6c-0.4,0.2-0.9,0.2-1.4,0.2c-0.8,0-1.6-0.2-2.3-0.5
			c-0.7-0.4-1.4-0.8-2-1.3L9,19.1l-1.5,2.3l0.2,0.1c0.8,0.6,1.6,1.1,2.5,1.5c0.8,0.4,1.8,0.7,2.7,0.7l-0.2,1.6h2.9l-0.3-1.7
			c0.8-0.2,1.5-0.5,2.1-0.8c0.6-0.3,1.1-0.7,1.5-1.2c0.7-0.7,1.1-1.6,1.3-2.6v-2C20.1,16.5,19.9,16,19.6,15.7z"/>
		<g>
			<path fill="#89499B" d="M2.3,3.9h5.5c0.9,0,1.6,0.1,2.4,0.4C10.9,4.6,11.5,5,12,5.5c0.5,0.5,0.9,1.1,1.2,1.8
				c0.3,0.7,0.4,1.5,0.4,2.4c0,1.4-0.3,2.5-0.8,3.3c-0.5,0.8-1.2,1.4-2.1,1.8c-0.8,0.4-1.8,0.6-2.9,0.7c-1.1,0.1-2.1,0.1-3.2,0.1
				v9.1H2.3V3.9z M4.7,6.1v6.9h3.3c0.5,0,1-0.1,1.4-0.3c0.4-0.2,0.7-0.5,1-0.8c0.3-0.3,0.5-0.7,0.6-1.1c0.2-0.4,0.2-0.9,0.2-1.4
				c0-0.9-0.3-1.7-0.8-2.4C9.9,6.5,9.2,6.1,8.2,6.1H4.7z"/>
		</g>
		<g>
			<path fill="#52C2C3" d="M13.5,7.2c-0.2-0.5-0.8-0.9-1.1-1.3c-0.3,0.1-0.7,0.2-1.1,0.3c-0.4,0.2-0.9,0.4-1.3,0.6
				c0.1,0.1,0.2,0.4,0.3,0.5c0.5,0.6,0.8,1.2,0.8,2.1c0,0.1,0.1,0.3,0.1,0.4l0,0c0-0.2,0.1-0.3,0.3-0.5c0.2-0.2,0.4-0.4,0.7-0.6
				c0.3-0.2,0.6-0.3,0.9-0.4c0.1,0,0.2-0.1,0.3-0.1C13.5,7.9,13.6,7.5,13.5,7.2z"/>
		</g>
	</g>
</g>
</svg>
