<?xml version="1.0" encoding="utf-8"?>
<!-- Generator: Adobe Illustrator 17.1.0, SVG Export Plug-In . SVG Version: 6.00 Build 0)  -->
<!DOCTYPE svg PUBLIC "-//W3C//DTD SVG 1.1//EN" "http://www.w3.org/Graphics/SVG/1.1/DTD/svg11.dtd">
<svg version="1.1" id="Capa_1" xmlns="http://www.w3.org/2000/svg" xmlns:xlink="http://www.w3.org/1999/xlink" x="0px" y="0px"
	 viewBox="17.8 234.4 1252.6 356" enable-background="new 17.8 234.4 1252.6 356" xml:space="preserve">
<g>
	<path fill="#89499B" d="M17.8,234.4h81.6c12.8,0,24.4,2.2,35,6.3s19.7,10,27.3,17.3c7.7,7.5,13.8,16.3,18.1,26.9s6.5,22.2,6.5,35
		c0,20.8-3.9,37-11.8,48.8s-18.1,20.4-30.5,26.2c-12.4,5.7-26.5,9-42.3,10.4s-31.7,2-47.6,2v134.9H17.8V234.4z M53.7,267.5v102.4
		h49.4c7.5,0,14.2-1.6,20.1-4.5s11-6.9,15.1-11.8c4.1-4.9,7.3-10.6,9.6-16.9c2.2-6.3,3.3-13.2,3.3-20.3c0-14-3.9-25.6-12-35
		s-19.1-14-33.4-14L53.7,267.5L53.7,267.5z"/>
	<path fill="#89499B" d="M303.3,353.4c4.5,0,8.8,0.6,13,1.8c4.1,1.2,8.3,2.8,12,4.9l-16.1,35.6c-3.5-1-7.5-1.4-11.6-1.4
		c-12.4,0-22.6,2.6-30.5,7.9c-7.9,5.1-14,12.2-18.5,20.6c-4.5,8.7-7.5,18.3-9,28.9c-1.6,10.6-2.6,21.6-2.9,32.4
		c-0.4,11-0.2,21.6,0.4,31.9c0.6,10.2,1,19.1,1,26.5h-36V359.9h36.6v28.7c0.2-5.1,2.9-9.6,7.9-14c4.9-4.3,10.6-8.1,17.1-11.2
		s13.2-5.5,20.1-7.3C293.2,354.4,298.7,353.4,303.3,353.4z"/>
	<path fill="#89499B" d="M357.1,469.2c3.3,14.5,9.6,25.2,18.9,32c9.4,6.9,21.2,10.2,35.8,10.2c8.1,0,15.7-1.8,23-5.3
		s13.8-8.3,19.5-13.8l24,24c-8.7,11-18.9,18.9-30.5,23.6c-11.8,4.7-24.4,7.1-38.1,7.1c-13.6,0-26-2.4-37-7.1
		c-11-4.7-20.3-11.4-28.1-19.9c-7.7-8.5-13.6-18.5-17.9-30.1c-4.1-11.6-6.3-24-6.3-37.4s2.2-26,6.5-37.6c4.3-11.8,10.2-22,18.1-30.7
		c7.7-8.8,17.1-15.7,28.3-20.6c11.2-5.1,23.6-7.7,37.6-7.7c12.4,0,23.6,2.4,33.6,7.3s18.5,11.4,25.6,19.7
		c7.1,8.3,12.6,17.7,16.5,28.5s5.7,22,5.7,33.6c0,4.1-0.2,8.3-0.4,12c-0.4,3.9-0.8,7.9-1.4,12H357.1V469.2z M460.6,433.6
		c-2.4-13.4-7.7-24-16.1-31.7c-8.3-7.7-19.7-11.6-33.8-11.6c-14.4,0-25.8,3.9-34.2,11.6c-8.7,7.7-14.7,18.3-18.3,31.7H460.6z"/>
</g>
<g>
	<path fill="#52C2C3" d="M579.1,305.4h29.3l-4.7,24.8c8.3,0,16.3,1.4,23.8,3.9c7.5,2.6,14.4,6.5,20.3,11.6L632,368.3
		c-5.3-3.3-11-6.3-17.5-8.5s-12.8-3.3-19.5-3.3c-3.7,0-7.7,0.6-12.4,2c-4.5,1.4-8.8,3.3-12.8,5.9c-3.9,2.6-7.3,5.5-10,9
		c-2.8,3.3-4.1,7.1-4.1,11c0,9.4,2.9,17.1,8.7,22.8c5.7,5.7,12.8,10.6,21.2,14.5s17.7,7.7,27.7,11.2c10,3.3,19.3,7.5,27.7,12.4
		c8.5,4.9,15.5,11,21.2,18.5s8.7,17.1,8.7,29.1c0,19.7-5.7,36-17.1,49c-11.4,13-27.1,21.6-47.6,26.3l3.1,22.2H580l2.8-20.8
		c-13-0.8-25.2-4.1-36.6-10c-11.4-5.9-21.8-12.8-31.5-20.6l15.7-25.2c7.5,7.1,16.3,13.2,26,18.3c9.8,5.1,20.1,7.7,31.1,7.7
		c6.3,0,12.4-1.2,18.5-3.3c5.9-2.2,11.4-5.3,16.1-9c4.7-3.9,8.5-8.5,11.2-13.8c2.8-5.3,4.1-11,4.1-17.3c0-6.5-1.6-12-4.9-16.5
		c-3.3-4.3-7.7-8.3-13.2-11.4s-11.6-5.9-18.5-8.3s-13.8-4.7-21-7.5c-7.3-2.8-14.4-5.7-21-9c-6.9-3.3-13-7.9-18.5-13.2
		c-5.5-5.3-9.8-11.8-13.2-19.5c-3.3-7.5-4.9-16.9-4.9-27.7c0-7.9,1.8-14.7,5.3-21s8.1-11.6,14-15.9c5.7-4.3,12.2-7.9,19.5-10.6
		c7.3-2.8,14.7-4.5,22.2-5.5L579.1,305.4z"/>
</g>
<g>
	<path fill="#29499D" d="M763.9,504.8h126v37.9H722.5V235l41.5,0.4L763.9,504.8L763.9,504.8z"/>
	<path fill="#29499D" d="M1055.7,542.7H1017v-18.3c-5.3,6.3-11.4,11.6-18.3,16.1c-6.9,4.5-14.5,6.7-23.2,6.7
		c-10.4,0-20.1-1-29.1-3.1s-16.9-5.5-23.8-10s-12.2-10.8-16.3-18.7c-3.9-7.9-6.1-17.5-6.1-29.1c0-11.2,2.2-21.2,6.5-29.7
		s10.2-15.5,17.5-20.8c7.5-5.5,15.9-9.6,25.4-12.4c9.4-2.8,19.5-4.3,29.9-4.3c8.8,0,16.7,2.2,23.2,6.7s11.8,10.6,16.1,18.3
		c0-6.5-0.2-13.2-0.6-19.9c-0.4-6.7-1.8-12.8-3.9-18.3c-2.2-5.5-5.7-10-10.4-13.4c-4.7-3.3-11.4-5.1-20.1-5.1
		c-6.9,0-13.8,1.2-20.4,3.3c-6.9,2.2-13.2,4.9-19.1,8.3l-13.8-29.5c8.3-5.1,17.3-9.2,26.9-12.4c9.6-3.3,19.5-4.9,29.1-4.9
		c21.6,0,38.7,6.5,50.9,19.7c12.4,13,18.5,30.3,18.5,51.7v119.2L1055.7,542.7L1055.7,542.7z M1019.5,484c0-5.9-1.4-11-4.1-14.9
		c-2.8-3.9-6.5-7.3-10.6-9.8c-4.3-2.6-9-4.3-14.2-5.3c-5.1-1-10.2-1.6-14.9-1.6c-11,0-20.6,2.4-28.7,7.3
		c-8.3,4.9-12.2,13.4-12.2,25.6c0,5.9,1.2,10.8,3.5,14.5c2.4,3.7,5.5,6.7,9.6,8.7c3.9,2.2,8.5,3.5,13.2,4.3
		c4.7,0.8,9.6,1.2,14.7,1.2c4.5,0,9.2-0.6,14.5-1.6c5.1-1,10-2.8,14.2-4.9c4.3-2.2,7.9-5.3,10.8-9
		C1018.2,494.4,1019.5,489.7,1019.5,484z"/>
	<path fill="#29499D" d="M1178.6,353c32.4,0,55.8,8.7,70.2,26.2c14.4,17.3,21.6,41.7,21.6,72.7c0,30.9-7.3,55.1-21.8,72.4
		c-14.5,17.3-37.9,26.2-70,26.2c-10,0-19.5-2.2-28.3-6.7s-16.7-10-23.8-16.9V543h-38.7l-0.1-308.5h38.7l0.1,144.7
		c5.3-9.8,12.8-16.7,22.2-20.4C1158.4,355,1168.2,353,1178.6,353z M1176.1,515.6c10,0,18.5-1.6,25.4-4.9c6.9-3.3,12.4-7.9,16.7-13.6
		s7.3-12.6,9-20.4c1.8-7.9,2.8-16.3,2.8-25.6c0-8.7-0.8-16.9-2.4-24.8s-4.3-14.7-8.3-20.6c-3.9-5.9-9-10.6-15.5-14
		c-6.5-3.3-14.7-5.1-24.6-5.1c-10.4,0-19.1,1.6-26.2,4.7s-12.6,7.7-16.9,13.4c-4.3,5.7-7.5,12.6-9.4,20.4c-2,7.9-2.9,16.5-2.9,26.2
		c0,8.8,0.8,17.3,2.4,25.2c1.6,7.9,4.5,14.7,8.5,20.4c3.9,5.7,9.4,10.4,16.1,13.8C1157.6,513.8,1165.8,515.6,1176.1,515.6z"/>
</g>
</svg>
